<svg id="Camada_1" data-name="Camada 1" xmlns="http://www.w3.org/2000/svg" xmlns:xlink="http://www.w3.org/1999/xlink" viewBox="0 0 221.125 142.192">
  <defs>
    <style>
      .cls-1 {
        fill: url(#Gradiente_sem_nome_63);
      }

      .cls-2 {
        fill: url(#Gradiente_sem_nome_63-2);
      }

      .cls-3 {
        font-size: 32px;
        fill: #e1e1e6;
        font-family: GillSansMT-Bold, Gill Sans MT;
        font-weight: 700;
      }
    </style>
    <linearGradient id="Gradiente_sem_nome_63" data-name="Gradiente sem nome 63" x1="979.135" y1="1253.204" x2="1113.885" y2="1253.204" gradientUnits="userSpaceOnUse">
      <stop offset="0.036" stop-color="#b4e8fb"/>
      <stop offset="0.268" stop-color="#81d8f7"/>
      <stop offset="0.659" stop-color="#39c8fb"/>
      <stop offset="0.975" stop-color="#3997fb"/>
    </linearGradient>
    <linearGradient id="Gradiente_sem_nome_63-2" x1="97.983" y1="60.014" x2="123.087" y2="60.014" xlink:href="#Gradiente_sem_nome_63"/>
  </defs>
  <title>reactLogo</title>
  <g>
    <path class="cls-1" d="M1113.885,1253.217c0-8.926-11.179-17.386-28.318-22.632,3.955-17.468,2.2-31.366-5.548-35.816a12.05,12.05,0,0,0-6.153-1.538v6.125a6.363,6.363,0,0,1,3.132.714c3.735,2.143,5.356,10.3,4.092,20.792-.3,2.582-.8,5.3-1.4,8.075a133.291,133.291,0,0,0-17.441-2.994,134.031,134.031,0,0,0-11.426-13.733c8.954-8.322,17.359-12.881,23.072-12.881V1193.2c-7.553,0-17.441,5.383-27.439,14.722-10-9.284-19.885-14.612-27.439-14.612v6.125c5.686,0,14.118,4.531,23.072,12.8a129.723,129.723,0,0,0-11.344,13.7,128.351,128.351,0,0,0-17.468,3.022c-.632-2.747-1.1-5.411-1.428-7.965-1.291-10.493.3-18.65,4.01-20.82a6.115,6.115,0,0,1,3.158-.714v-6.125a12.243,12.243,0,0,0-6.207,1.538c-7.718,4.45-9.448,18.32-5.466,35.734-17.084,5.273-28.208,13.7-28.208,22.6,0,8.927,11.179,17.387,28.318,22.633-3.955,17.468-2.2,31.366,5.548,35.816a12.084,12.084,0,0,0,6.18,1.538c7.553,0,17.441-5.384,27.439-14.722,10,9.283,19.886,14.612,27.439,14.612a12.254,12.254,0,0,0,6.207-1.538c7.718-4.45,9.449-18.32,5.466-35.734,17.029-5.246,28.153-13.706,28.153-22.6Zm-35.761-18.32c-1.017,3.544-2.28,7.2-3.708,10.85-1.126-2.2-2.307-4.395-3.6-6.592-1.264-2.2-2.61-4.34-3.955-6.427,3.9.576,7.663,1.291,11.261,2.169Zm-12.58,29.252c-2.142,3.708-4.339,7.224-6.619,10.492-4.093.357-8.24.549-12.415.549-4.147,0-8.3-.192-12.36-.521q-3.418-4.9-6.647-10.438c-2.087-3.6-3.982-7.251-5.713-10.931,1.7-3.681,3.626-7.361,5.686-10.959,2.142-3.708,4.34-7.224,6.619-10.492,4.093-.357,8.24-.55,12.415-.55,4.147,0,8.3.193,12.36.522q3.42,4.9,6.647,10.437c2.087,3.6,3.982,7.252,5.713,10.932-1.731,3.68-3.626,7.361-5.686,10.959Zm8.872-3.571c1.483,3.681,2.746,7.361,3.79,10.932-3.6.879-7.388,1.62-11.316,2.2,1.346-2.115,2.692-4.284,3.955-6.509,1.264-2.2,2.445-4.422,3.571-6.62Zm-27.851,29.307a113.479,113.479,0,0,1-7.636-8.789c2.472.11,5,.192,7.554.192,2.581,0,5.136-.055,7.635-.192A107.322,107.322,0,0,1,1046.565,1289.885Zm-20.435-16.178c-3.9-.577-7.663-1.291-11.261-2.17,1.016-3.543,2.28-7.2,3.708-10.849,1.126,2.2,2.307,4.395,3.6,6.592S1024.784,1271.62,1026.13,1273.707Zm20.3-57.157a113.474,113.474,0,0,1,7.635,8.789c-2.472-.11-5-.192-7.553-.192-2.582,0-5.136.055-7.636.192A107.328,107.328,0,0,1,1046.428,1216.55Zm-20.325,16.178c-1.346,2.115-2.692,4.284-3.955,6.509-1.264,2.2-2.445,4.395-3.571,6.592-1.483-3.68-2.747-7.361-3.79-10.932,3.6-.851,7.388-1.593,11.316-2.169Zm-24.857,34.387c-9.723-4.147-16.013-9.585-16.013-13.9s6.29-9.778,16.013-13.9c2.362-1.017,4.944-1.923,7.608-2.775a131.671,131.671,0,0,0,6.18,16.727,130.031,130.031,0,0,0-6.1,16.645c-2.719-.852-5.3-1.785-7.69-2.8Zm14.777,39.25c-3.736-2.143-5.356-10.3-4.093-20.792.3-2.582.8-5.3,1.4-8.075a133.127,133.127,0,0,0,17.441,2.993,133.939,133.939,0,0,0,11.426,13.734c-8.954,8.322-17.359,12.881-23.072,12.881a6.546,6.546,0,0,1-3.1-.741Zm65.149-20.93c1.291,10.492-.3,18.65-4.01,20.82a6.115,6.115,0,0,1-3.158.714c-5.686,0-14.118-4.532-23.072-12.8a129.84,129.84,0,0,0,11.344-13.706,128.2,128.2,0,0,0,17.468-3.021A76.781,76.781,0,0,1,1081.172,1285.435Zm10.575-18.32c-2.362,1.017-4.944,1.923-7.608,2.774a132.023,132.023,0,0,0-6.18-16.726,130.02,130.02,0,0,0,6.1-16.645c2.72.851,5.3,1.785,7.718,2.8,9.723,4.147,16.013,9.585,16.013,13.9-.027,4.313-6.317,9.778-16.04,13.9Z" transform="translate(-935.947 -1193.204)"/>
    <circle class="cls-2" cx="110.535" cy="60.014" r="12.552"/>
  </g>
  <text class="cls-3" transform="translate(0 131.973)">Design System</text>
</svg>
