<svg id="Camada_1" data-name="Camada 1" xmlns="http://www.w3.org/2000/svg" xmlns:xlink="http://www.w3.org/1999/xlink" viewBox="0 0 221.125 142.096">
  <defs>
    <style>
      .cls-1 {
        fill: url(#Gradiente_sem_nome);
      }

      .cls-2 {
        fill: url(#Gradiente_sem_nome_2);
      }

      .cls-3 {
        isolation: isolate;
        font-size: 32px;
        fill: #202024;
        font-family: GillSansMT-Bold, Gill Sans MT;
        font-weight: 700;
      }
    </style>
    <linearGradient id="Gradiente_sem_nome" data-name="Gradiente sem nome" x1="979.135" y1="1246.8" x2="1113.885" y2="1246.8" gradientTransform="matrix(1, 0, 0, -1, 0, 2500)" gradientUnits="userSpaceOnUse">
      <stop offset="0.036" stop-color="#b4e8fb"/>
      <stop offset="0.268" stop-color="#81d8f7"/>
      <stop offset="0.659" stop-color="#39c8fb"/>
      <stop offset="0.975" stop-color="#3997fb"/>
    </linearGradient>
    <linearGradient id="Gradiente_sem_nome_2" data-name="Gradiente sem nome 2" x1="1033.931" y1="1246.8" x2="1059.035" y2="1246.8" gradientTransform="matrix(1, 0, 0, -1, -935.947, 1306.7)" xlink:href="#Gradiente_sem_nome"/>
  </defs>
  <title>reactLogoDark</title>
  <g>
    <path class="cls-1" d="M1113.9,1253.2c0-8.9-11.2-17.4-28.3-22.6,4-17.5,2.2-31.4-5.5-35.8a12.643,12.643,0,0,0-6.2-1.5v6.1a5.7,5.7,0,0,1,3.1.7c3.7,2.1,5.4,10.3,4.1,20.8-.3,2.6-.8,5.3-1.4,8.1a146.365,146.365,0,0,0-17.4-3,135.667,135.667,0,0,0-11.4-13.7c9-8.3,17.4-12.9,23.1-12.9v-6.1c-7.6,0-17.4,5.4-27.4,14.7-10-9.3-19.9-14.6-27.4-14.6v6.1c5.7,0,14.1,4.5,23.1,12.8A123.114,123.114,0,0,0,1031,1226a144.649,144.649,0,0,0-17.5,3,79.049,79.049,0,0,1-1.4-8c-1.3-10.5.3-18.6,4-20.8a6.076,6.076,0,0,1,3.2-.7v-6.1a12.643,12.643,0,0,0-6.2,1.5c-7.7,4.4-9.4,18.3-5.5,35.7-17.1,5.3-28.2,13.7-28.2,22.6s11.2,17.4,28.3,22.6c-4,17.5-2.2,31.4,5.5,35.8a12.643,12.643,0,0,0,6.2,1.5c7.6,0,17.4-5.4,27.4-14.7,10,9.3,19.9,14.6,27.4,14.6a12.643,12.643,0,0,0,6.2-1.5c7.7-4.4,9.4-18.3,5.5-35.7,16.9-5.2,28-13.7,28-22.6Zm-35.8-18.3c-1,3.5-2.3,7.2-3.7,10.8q-1.65-3.3-3.6-6.6c-1.3-2.2-2.6-4.3-4-6.4,4,.6,7.7,1.3,11.3,2.2Zm-12.6,29.2q-3.15,5.55-6.6,10.5c-4.1.4-8.2.5-12.4.5-4.1,0-8.3-.2-12.4-.5-2.3-3.3-4.5-6.8-6.6-10.4s-4-7.3-5.7-10.9c1.7-3.7,3.6-7.4,5.7-11q3.15-5.55,6.6-10.5c4.1-.4,8.2-.5,12.4-.5,4.1,0,8.3.2,12.4.5,2.3,3.3,4.5,6.8,6.6,10.4s4,7.3,5.7,10.9a103.833,103.833,0,0,1-5.7,11Zm8.9-3.5c1.5,3.7,2.7,7.4,3.8,10.9-3.6.9-7.4,1.6-11.3,2.2,1.3-2.1,2.7-4.3,4-6.5,1.2-2.2,2.4-4.4,3.5-6.6Zm-27.8,29.3a96.354,96.354,0,0,1-7.6-8.8c2.5.1,5,.2,7.6.2s5.1-.1,7.6-.2C1051.6,1284.3,1049.1,1287.2,1046.6,1289.9Zm-20.5-16.2c-3.9-.6-7.7-1.3-11.3-2.2,1-3.5,2.3-7.2,3.7-10.8q1.65,3.3,3.6,6.6C1023.4,1269.5,1024.8,1271.6,1026.1,1273.7Zm20.3-57.1a96.354,96.354,0,0,1,7.6,8.8c-2.5-.1-5-.2-7.6-.2s-5.1.1-7.6.2A98.47,98.47,0,0,1,1046.4,1216.6Zm-20.3,16.1c-1.3,2.1-2.7,4.3-4,6.5s-2.4,4.4-3.6,6.6c-1.5-3.7-2.7-7.4-3.8-10.9,3.7-.9,7.5-1.6,11.4-2.2Zm-24.9,34.4c-9.7-4.1-16-9.6-16-13.9s6.3-9.8,16-13.9c2.4-1,4.9-1.9,7.6-2.8a127.04,127.04,0,0,0,6.2,16.7,130.242,130.242,0,0,0-6.1,16.6,58.1,58.1,0,0,1-7.7-2.7Zm14.8,39.3c-3.7-2.1-5.4-10.3-4.1-20.8.3-2.6.8-5.3,1.4-8.1a146.365,146.365,0,0,0,17.4,3,135.667,135.667,0,0,0,11.4,13.7c-9,8.3-17.4,12.9-23.1,12.9a6.981,6.981,0,0,1-3-.7Zm65.2-21c1.3,10.5-.3,18.6-4,20.8a6.076,6.076,0,0,1-3.2.7c-5.7,0-14.1-4.5-23.1-12.8a123.114,123.114,0,0,0,11.3-13.7,144.649,144.649,0,0,0,17.5-3A65.35,65.35,0,0,1,1081.2,1285.4Zm10.5-18.3c-2.4,1-4.9,1.9-7.6,2.8a127.04,127.04,0,0,0-6.2-16.7,130.242,130.242,0,0,0,6.1-16.6c2.7.9,5.3,1.8,7.7,2.8,9.7,4.1,16,9.6,16,13.9.1,4.2-6.2,9.7-16,13.8Z" transform="translate(-935.947 -1193.3)"/>
    <circle class="cls-2" cx="110.553" cy="59.9" r="12.6"/>
  </g>
  <text class="cls-3" transform="translate(0 131.877)">Design System</text>
</svg>
